HIERARCHY
ROOT hip
{
	OFFSET 0.000000 0.000000 0.000000 
	CHANNELS 6 Xposition Yposition Zposition Xrotation Zrotation Yrotation
	JOINT abdomen
	{
		OFFSET 0.000000 3.402643 0.000000 
		CHANNELS 3 Xrotation Zrotation Yrotation
		JOINT chest
		{
			OFFSET 0.000000 8.438565 -0.680529 
			CHANNELS 3 Xrotation Zrotation Yrotation
			JOINT neck
			{
				OFFSET 0.000000 10.207942 -0.272212 
				CHANNELS 3 Xrotation Zrotation Yrotation
				JOINT head
				{
					OFFSET 0.000000 3.130431 0.000000 
					CHANNELS 3 Xrotation Zrotation Yrotation
					End Site
					{
						OFFSET 0.000000 3.130435 0.000000 
					}
				}
			}
			JOINT lCollar
			{
				OFFSET 3.470700 6.669187 -0.816635 
				CHANNELS 3 Yrotation Zrotation Xrotation
				JOINT lShldr
				{
					OFFSET 3.198488 0.000000 0.000000 
					CHANNELS 3 Zrotation Yrotation Xrotation
					JOINT lForeArm
					{
						OFFSET 10.139888 0.000000 0.000000 
						CHANNELS 3 Yrotation Zrotation Xrotation
						JOINT lHand
						{
							OFFSET 8.370511 0.000000 0.000000 
							CHANNELS 3 Zrotation Yrotation Xrotation
							End Site
							{
								OFFSET 4.083176 0.000000 0.000000 
							}
						}
					}
				}
			}
			JOINT rCollar
			{
				OFFSET -3.470700 6.669187 -0.816635 
				CHANNELS 3 Yrotation Zrotation Xrotation
				JOINT rShldr
				{
					OFFSET -3.198488 0.000000 0.000000 
					CHANNELS 3 Zrotation Yrotation Xrotation
					JOINT rForeArm
					{
						OFFSET -10.139888 0.000000 0.000000 
						CHANNELS 3 Yrotation Zrotation Xrotation
						JOINT rHand
						{
							OFFSET -8.370511 0.000000 0.000000 
							CHANNELS 3 Zrotation Yrotation Xrotation
							End Site
							{
								OFFSET -4.083176 0.000000 0.000000 
							}
						}
					}
				}
			}
		}
	}
	JOINT lThigh
	{
		OFFSET 5.308129 -1.633274 1.361059 
		CHANNELS 3 Xrotation Zrotation Yrotation
		JOINT lShin
		{
			OFFSET -2.041588 -20.007561 0.000000 
			CHANNELS 3 Xrotation Zrotation Yrotation
			JOINT lFoot
			{
				OFFSET 0.000000 -19.190928 -1.224953 
				CHANNELS 3 Xrotation Yrotation Zrotation
				End Site
				{
					OFFSET 0.000000 -2.449906 4.627600 
				}
			}
		}
	}
	JOINT rThigh
	{
		OFFSET -5.308129 -1.633274 1.361059 
		CHANNELS 3 Xrotation Zrotation Yrotation
		JOINT rShin
		{
			OFFSET 2.041588 -20.007561 0.000000 
			CHANNELS 3 Xrotation Zrotation Yrotation
			JOINT rFoot
			{
				OFFSET 0.000000 -19.190928 -1.224953 
				CHANNELS 3 Xrotation Yrotation Zrotation
				End Site
				{
					OFFSET 0.000000 -2.449906 4.627600 
				}
			}
		}
	}
}
MOTION
Frames: 8
Frame Time: 0.033333
-9.078381 46.558815 -21.920828 20.039063 -14.248048 -11.828575 39.589840 -4.882813 -8.076173 -16.582033 11.943359 -4.794922 -18.535156 21.806643 -4.312778 35.029297 6.054688 1.016655 11.533203 -5.761719 -0.078125 -65.781250 -32.968750 22.373049 -99.609375 1.777344 20.673824 14.990235 16.875000 4.319242 -19.511719 1.162109 -0.156250 58.515625 87.675781 16.523438 115.390625 -4.941407 73.339844 -50.214844 -13.613281 15.410156 -74.816826 34.577572 -9.435498 64.756996 0.765840 -3.641080 20.933661 2.140738 -13.159199 -35.988686 -4.030124 -18.361408 53.512741 -0.371144 3.027925 -5.503962 -10.541242 10.576049 
-8.161459 46.480629 -21.228109 20.380859 -14.599609 -11.611327 39.238281 -4.755859 -7.862137 -16.406248 11.943359 -4.617119 -18.730469 21.778366 -4.654747 35.029297 6.230469 0.840903 11.708984 -5.937500 -0.019531 -65.839844 -33.330082 22.523928 -99.609375 1.777344 20.673824 15.058595 17.011719 4.475513 -19.511719 1.162109 -0.156250 51.162109 87.441406 9.130859 115.488281 -4.892578 73.701172 -49.501957 -13.242188 14.560546 -73.807892 34.546886 -7.641962 64.895844 0.847666 -3.780471 19.143965 1.929888 -12.702093 -34.616390 -6.151239 -20.088299 53.337105 -0.371100 3.020457 -3.985232 -11.685601 10.949965 
-7.377421 46.426899 -20.582493 20.566406 -14.951171 -11.125567 38.886719 -4.677734 -7.481263 -16.220703 12.294922 -4.257813 -19.082031 21.572264 -4.996409 35.029297 6.406250 0.665139 11.708984 -5.937500 -0.019531 -65.800781 -33.730469 22.816843 -99.609375 1.767578 20.849607 15.068358 17.187500 4.472656 -19.687502 1.162109 -0.146484 42.333984 87.128906 0.156250 115.449211 -4.804688 74.150391 -48.945309 -12.919921 13.962661 -73.490990 34.548851 -6.608287 65.622986 0.589795 -3.622958 16.923019 1.443087 -12.691193 -32.849049 -7.908805 -21.076202 52.449162 -0.371107 2.982756 -2.365750 -12.180602 11.240806 
-6.736381 46.393284 -19.984945 20.917969 -15.478517 -10.419922 38.535160 -4.726563 -7.305492 -16.044924 12.822267 -4.082031 -19.433594 21.386719 -5.156250 34.677734 6.572266 0.333149 11.865233 -6.142578 -0.136719 -65.849609 -34.277344 23.119503 -99.433594 1.816406 21.015316 15.068358 17.187500 4.472656 -19.863281 0.937500 -0.039222 35.605469 86.757813 -6.699234 115.537102 -4.755859 74.521484 -48.427734 -12.880860 13.671873 -73.436913 34.243828 -5.263334 66.301971 0.759582 -3.885103 15.082205 1.274920 -12.423710 -30.904348 -9.479512 -21.128651 51.230015 -0.195407 3.021297 -0.578369 -12.221914 11.729913 
-6.239790 46.372566 -19.439684 21.259764 -16.171875 -9.150392 38.359375 -4.775391 -7.138672 -16.044922 13.349610 -3.906250 -19.794922 21.181641 -5.494518 34.316402 6.914062 0.166016 12.041017 -6.142578 -0.116143 -65.712898 -34.707027 23.486326 -99.433594 1.816406 21.015316 14.882812 17.021484 4.482422 -20.039063 0.615234 -0.156250 30.585939 86.357422 -11.992205 115.703117 -5.068359 74.824219 -47.812500 -12.910156 13.513444 -73.245590 33.884094 -4.440538 66.684029 0.433215 -3.596248 13.161991 0.771437 -12.404276 -28.582283 -10.311055 -20.673784 49.481083 -0.000042 2.846789 1.120425 -12.087669 11.896169 
-5.880177 46.355335 -18.951643 21.445313 -16.884768 -7.968749 38.007813 -4.824219 -6.973477 -16.220703 14.052734 -3.730469 -20.322264 20.800781 -5.816844 33.789063 7.265625 0.009765 12.041016 -6.318359 -0.078125 -65.732422 -35.419922 23.730467 -99.267578 1.875000 21.191408 14.814453 16.894533 4.319245 -20.390625 0.224609 -0.107460 22.539063 86.093750 -20.820313 115.771484 -5.019531 75.176636 -47.246094 -13.105468 13.396224 -73.155365 33.668026 -2.964736 67.019394 0.931381 -3.633785 11.646955 0.095655 -12.099237 -26.178495 -11.227729 -19.418919 47.379787 -0.205115 2.482953 3.194974 -11.155015 12.567137 
-5.641761 46.331245 -18.524084 21.796875 -17.587891 -6.389670 37.841797 -4.863281 -6.796876 -16.210938 14.755858 -3.727981 -20.683592 20.595703 -6.158674 33.261715 7.607422 -0.322265 12.216798 -6.142579 -0.096611 -65.732422 -36.328125 24.130859 -99.267578 1.875000 21.191408 14.785155 16.542967 4.316406 -20.566406 0.058594 -0.166016 19.101563 85.556641 -25.068388 115.966805 -4.833985 75.371918 -46.630859 -13.134766 13.269267 -73.582710 33.349079 -2.135955 67.027481 0.775170 -3.549930 10.150735 -0.299774 -12.073708 -23.689423 -11.746201 -18.034395 44.739201 0.175785 2.694839 5.341805 -10.395024 12.707232 
-5.503459 46.291245 -18.157967 22.148439 -18.466797 -4.807780 37.666016 -4.912109 -6.631695 -16.562500 15.107422 -3.564453 -21.044922 20.380857 -6.669922 32.900391 8.124999 -0.488281 12.216798 -5.966797 -0.135704 -65.703117 -37.392578 24.466726 -99.267578 1.875000 21.191408 14.726563 16.406248 4.101562 -20.576172 -0.166016 -0.068359 13.964845 84.980469 -31.113317 116.123055 -4.980469 75.625847 -45.869141 -13.486329 13.015300 -74.104797 33.170837 -0.831181 67.019753 0.932317 -3.623567 9.145409 -0.352928 -12.150723 -21.033447 -12.068592 -16.550375 42.104607 0.156207 2.568995 7.216696 -9.320159 12.961793 
